<?xml version="1.0" encoding="utf-8"?>
<svg xmlns="http://www.w3.org/2000/svg" class="quiz-achievable-weight__svg" fill="none" height="440" width="440">
  <g clip-path="url(#a)">
    <rect fill="#F5F7FE" height="440" rx="20" width="440"/>
    <path d="M100.437 60v-1.452c.337-.015.616-.059.836-.132.234-.073.41-.242.528-.506.132-.264.198-.69.198-1.276V54.72l-4.048-6.402a8.897 8.897 0 0 1-.572-1.122c-.176-.41-.264-.733-.264-.968-.235.015-.433.03-.594.044-.162 0-.323.007-.484.022V44.6h6.49v1.452c-.426-.03-.778.015-1.056.132-.279.117-.448.308-.506.572-.059.25.029.58.264.99l1.672 2.75c.073.117.183.308.33.572.146.25.293.52.44.814.161.279.278.528.352.748h.022c.073-.176.198-.44.374-.792.176-.352.396-.807.66-1.364l1.144-2.244c.073-.161.176-.367.308-.616.132-.264.271-.52.418-.77.161-.264.308-.477.44-.638-.235.015-.536.03-.902.044-.367.015-.631.03-.792.044V44.6h4.862v1.452a2.331 2.331 0 0 0-1.32.638c-.367.337-.763.91-1.188 1.716-.47.91-.946 1.826-1.43 2.75-.484.924-.961 1.84-1.43 2.75v2.486c0 .396-.008.777-.022 1.144a8.23 8.23 0 0 1-.066.836c.249-.03.564-.044.946-.044.396-.015.667-.022.814-.022V60h-6.424Zm14.673.352c-1.056 0-2.009-.227-2.86-.682a5.144 5.144 0 0 1-2.024-1.936c-.484-.85-.726-1.848-.726-2.992 0-1.217.25-2.28.748-3.19.514-.924 1.188-1.635 2.024-2.134a5.27 5.27 0 0 1 2.772-.77c1.056 0 2.002.227 2.838.682a4.984 4.984 0 0 1 1.98 1.958c.484.836.726 1.84.726 3.014 0 1.232-.234 2.303-.704 3.212-.469.91-1.114 1.613-1.936 2.112-.821.484-1.767.726-2.838.726Zm.088-1.562c.587-.015 1.027-.22 1.32-.616.308-.396.521-.895.638-1.496a9.46 9.46 0 0 0 .176-1.826c0-.543-.044-1.093-.132-1.65a6.556 6.556 0 0 0-.374-1.518c-.176-.455-.418-.821-.726-1.1-.293-.279-.66-.41-1.1-.396-.572.015-1.026.22-1.364.616-.322.396-.557.895-.704 1.496a8.398 8.398 0 0 0-.198 1.848c0 .748.081 1.481.242 2.2.162.719.418 1.313.77 1.782.367.455.851.675 1.452.66Zm11.537 1.562c-.88 0-1.591-.169-2.134-.506-.528-.337-.916-.865-1.166-1.584-.234-.719-.352-1.643-.352-2.772v-2.53c0-.264.008-.565.022-.902l.044-1.012c-.234.015-.513.03-.836.044-.308 0-.542.007-.704.022V49.44h.22c.91 0 1.628-.073 2.156-.22.528-.147.866-.293 1.012-.44h1.21v6.732c0 .953.125 1.665.374 2.134.25.455.646.682 1.188.682.382 0 .763-.103 1.144-.308.396-.22.719-.47.968-.748V52.96c0-.264.008-.565.022-.902.015-.352.037-.69.066-1.012-.234.015-.513.03-.836.044-.308 0-.542.007-.704.022V49.44h.528c.69 0 1.298-.073 1.826-.22.528-.161.866-.308 1.012-.44h1.21v7.678c0 .205-.007.499-.022.88-.014.367-.036.719-.066 1.056a6.25 6.25 0 0 1 .77-.044c.294-.015.514-.022.66-.022V60h-4.18a6.956 6.956 0 0 0-.066-.572 6.956 6.956 0 0 0-.066-.572 10.56 10.56 0 0 1-1.474 1.034c-.513.308-1.122.462-1.826.462Zm9.046-1.782c.411 0 .704-.08.88-.242.176-.161.286-.389.33-.682.059-.308.088-.653.088-1.034v-3.696a21.965 21.965 0 0 1 .088-1.87c-.235.015-.513.03-.836.044a8.37 8.37 0 0 0-.704.022V49.44h.88c.572 0 1.093-.073 1.562-.22.484-.147.799-.293.946-.44h1.078c.029.147.051.425.066.836.015.396.022.748.022 1.056a8.65 8.65 0 0 1 1.122-1.166 3.813 3.813 0 0 1 1.034-.638c.352-.147.704-.22 1.056-.22.513 0 .961.147 1.342.44.381.279.572.74.572 1.386 0 .22-.051.455-.154.704a1.453 1.453 0 0 1-.484.594c-.22.161-.521.242-.902.242-.293 0-.594-.088-.902-.264-.308-.176-.484-.513-.528-1.012-.293 0-.587.125-.88.374a4.07 4.07 0 0 0-.792.858c-.22.323-.374.623-.462.902v3.586c0 .205-.007.499-.022.88-.015.367-.037.719-.066 1.056.235-.03.491-.044.77-.044.293-.015.513-.022.66-.022V60h-5.764v-1.43ZM158.247 60c-.03-.205-.052-.374-.066-.506 0-.147-.008-.315-.022-.506-.499.499-1.027.85-1.584 1.056a4.87 4.87 0 0 1-1.694.308c-.939 0-1.672-.279-2.2-.836-.528-.557-.792-1.254-.792-2.09 0-.704.176-1.305.528-1.804a4.11 4.11 0 0 1 1.43-1.21 7.748 7.748 0 0 1 1.98-.726 11.338 11.338 0 0 1 2.2-.308v-1.144c0-.381-.052-.726-.154-1.034a1.34 1.34 0 0 0-.484-.726c-.22-.176-.536-.257-.946-.242-.279.015-.55.073-.814.176-.264.103-.492.25-.682.44.117.132.19.279.22.44.029.147.044.279.044.396 0 .293-.118.601-.352.924-.235.308-.609.455-1.122.44-.44-.015-.778-.169-1.012-.462a1.604 1.604 0 0 1-.352-1.034c0-.587.205-1.093.616-1.518.425-.44.99-.777 1.694-1.012.704-.25 1.481-.374 2.332-.374 1.29 0 2.288.337 2.992 1.012.718.66 1.078 1.723 1.078 3.19v1.276c0 .352-.008.704-.022 1.056v1.276a26.309 26.309 0 0 1-.088 1.936c.249-.03.513-.044.792-.044.278-.015.491-.022.638-.022V60h-4.158Zm-.242-5.06c-.411.044-.8.117-1.166.22-.367.103-.69.242-.968.418a2.2 2.2 0 0 0-.638.638c-.147.25-.22.528-.22.836.014.41.146.704.396.88.249.176.535.264.858.264.337 0 .652-.073.946-.22.293-.147.557-.337.792-.572V54.94Zm10.855 5.412c-.983 0-1.885-.22-2.706-.66a5.053 5.053 0 0 1-1.98-1.914c-.484-.836-.726-1.848-.726-3.036 0-.836.139-1.62.418-2.354a6.13 6.13 0 0 1 1.166-1.936 5.723 5.723 0 0 1 1.804-1.32c.704-.323 1.481-.484 2.332-.484.938 0 1.716.147 2.332.44.63.279 1.1.653 1.408 1.122.322.455.484.939.484 1.452 0 .425-.132.807-.396 1.144-.25.323-.609.491-1.078.506-.558.015-.946-.14-1.166-.462-.22-.337-.33-.66-.33-.968 0-.132.022-.286.066-.462.044-.19.11-.36.198-.506a.993.993 0 0 0-.462-.484 2.017 2.017 0 0 0-.638-.198c-.206-.044-.374-.059-.506-.044-.704.044-1.284.396-1.738 1.056-.455.66-.682 1.613-.682 2.86 0 .733.088 1.423.264 2.068.19.63.498 1.151.924 1.562.425.41.997.63 1.716.66a3.646 3.646 0 0 0 1.804-.44 4.573 4.573 0 0 0 1.496-1.254l1.012.99c-.528.733-1.078 1.29-1.65 1.672-.572.381-1.144.638-1.716.77a6.47 6.47 0 0 1-1.65.22Zm12.75-1.782c.411 0 .704-.08.88-.242.191-.161.308-.389.352-.682.059-.308.088-.653.088-1.034l-.022-3.124c0-.953-.146-1.657-.44-2.112-.278-.47-.726-.704-1.342-.704-.366 0-.733.08-1.1.242a3.664 3.664 0 0 0-.902.572v4.972c0 .205-.007.499-.022.88-.014.367-.036.719-.066 1.056.25-.03.514-.044.792-.044.279-.015.492-.022.638-.022V60h-5.764v-1.43c.411 0 .704-.08.88-.242.191-.161.308-.389.352-.682.044-.308.066-.653.066-1.034V47.57c0-.264.008-.565.022-.902.015-.352.037-.69.066-1.012-.234.015-.513.03-.836.044-.308 0-.542.007-.704.022V44.05c.69 0 1.262-.037 1.716-.11.47-.073.836-.161 1.1-.264.279-.103.47-.198.572-.286h1.188v6.49a4.92 4.92 0 0 1 1.012-.616c.382-.19.77-.337 1.166-.44a3.72 3.72 0 0 1 1.034-.176c1.35 0 2.303.389 2.86 1.166.558.763.844 1.995.858 3.696v2.948c0 .205-.007.499-.022.88-.014.367-.036.719-.066 1.056a6.25 6.25 0 0 1 .77-.044c.279-.015.499-.022.66-.022V60h-5.786v-1.43Zm7.108 0c.411 0 .704-.08.88-.242.176-.161.286-.389.33-.682.059-.308.088-.653.088-1.034V52.96c0-.264.008-.565.022-.902.015-.352.037-.69.066-1.012-.234.015-.513.03-.836.044-.308 0-.542.007-.704.022V49.44c.675 0 1.247-.037 1.716-.11.47-.073.836-.161 1.1-.264.279-.103.47-.198.572-.286h1.188v7.678c0 .205-.007.499-.022.88-.014.367-.036.719-.066 1.056a6.25 6.25 0 0 1 .77-.044c.294-.015.514-.022.66-.022V60h-5.764v-1.43Zm2.75-11.528c-.498 0-.909-.176-1.232-.528a1.824 1.824 0 0 1-.484-1.276c0-.499.169-.924.506-1.276.338-.352.734-.528 1.188-.528.47 0 .858.176 1.166.528.323.352.484.777.484 1.276s-.146.924-.44 1.276c-.293.352-.689.528-1.188.528Zm9.662 13.31c-1.071 0-2.017-.235-2.838-.704a4.985 4.985 0 0 1-1.914-2.024c-.455-.88-.682-1.914-.682-3.102 0-1.027.227-1.987.682-2.882a5.54 5.54 0 0 1 1.914-2.156c.836-.557 1.804-.836 2.904-.836.616 0 1.217.088 1.804.264a3.991 3.991 0 0 1 1.584.858c.484.41.865.968 1.144 1.672.293.704.432 1.584.418 2.64l-7.216.132c0 .792.095 1.503.286 2.134.205.63.535 1.13.99 1.496.454.367 1.063.55 1.826.55.293 0 .623-.051.99-.154a4.353 4.353 0 0 0 1.144-.506c.396-.25.762-.58 1.1-.99l.99.924c-.528.748-1.093 1.32-1.694 1.716-.602.381-1.203.638-1.804.77a7.459 7.459 0 0 1-1.628.198Zm-2.068-7.678h4.048c-.015-.616-.103-1.1-.264-1.452-.147-.367-.352-.63-.616-.792a1.737 1.737 0 0 0-.924-.242c-.646 0-1.152.235-1.518.704-.367.455-.609 1.049-.726 1.782Zm12.784 7.392-3.476-7.634a19.453 19.453 0 0 1-.352-.836 6.16 6.16 0 0 1-.132-.484 3.459 3.459 0 0 0-.088-.484l-.814.044V49h5.148v1.408c-.308.015-.514.103-.616.264-.103.161-.14.374-.11.638.029.25.095.52.198.814l1.144 2.816c.117.279.234.565.352.858l.352.88h.022c.117-.308.227-.616.33-.924.117-.308.227-.616.33-.924l.946-2.684c.132-.367.249-.66.352-.88.117-.22.242-.447.374-.682l-1.364.088V49h4.18v1.408c-.338.059-.638.25-.902.572-.264.308-.492.66-.682 1.056-.191.381-.345.719-.462 1.012l-2.816 7.018h-1.914ZM225.622 60c-.03-.205-.052-.374-.066-.506 0-.147-.008-.315-.022-.506-.499.499-1.027.85-1.584 1.056a4.87 4.87 0 0 1-1.694.308c-.939 0-1.672-.279-2.2-.836-.528-.557-.792-1.254-.792-2.09 0-.704.176-1.305.528-1.804a4.11 4.11 0 0 1 1.43-1.21 7.748 7.748 0 0 1 1.98-.726 11.338 11.338 0 0 1 2.2-.308v-1.144c0-.381-.052-.726-.154-1.034a1.34 1.34 0 0 0-.484-.726c-.22-.176-.536-.257-.946-.242-.279.015-.55.073-.814.176-.264.103-.492.25-.682.44.117.132.19.279.22.44.029.147.044.279.044.396 0 .293-.118.601-.352.924-.235.308-.609.455-1.122.44-.44-.015-.778-.169-1.012-.462a1.604 1.604 0 0 1-.352-1.034c0-.587.205-1.093.616-1.518.425-.44.99-.777 1.694-1.012.704-.25 1.481-.374 2.332-.374 1.29 0 2.288.337 2.992 1.012.718.66 1.078 1.723 1.078 3.19v1.276c0 .352-.008.704-.022 1.056v1.276a26.309 26.309 0 0 1-.088 1.936c.249-.03.513-.044.792-.044.278-.015.491-.022.638-.022V60h-4.158Zm-.242-5.06c-.411.044-.8.117-1.166.22-.367.103-.69.242-.968.418a2.2 2.2 0 0 0-.638.638c-.147.25-.22.528-.22.836.014.41.146.704.396.88.249.176.535.264.858.264.337 0 .652-.073.946-.22.293-.147.557-.337.792-.572V54.94Zm6.147-7.37v-.902c.014-.352.036-.69.066-1.012-.235.015-.514.03-.836.044a8.37 8.37 0 0 0-.704.022V44.05c.689 0 1.261-.037 1.716-.11.469-.073.836-.161 1.1-.264.278-.103.469-.198.572-.286h1.188v6.446c.498-.44 1.004-.748 1.518-.924a4.481 4.481 0 0 1 1.452-.264c.88 0 1.65.227 2.31.682.674.455 1.195 1.1 1.562 1.936.381.836.572 1.819.572 2.948 0 1.173-.22 2.23-.66 3.168-.426.924-1.034 1.65-1.826 2.178s-1.746.792-2.86.792c-.396 0-.902-.088-1.518-.264-.602-.161-1.159-.513-1.672-1.056l-.66.968h-1.32V47.57Zm3.102 9.13c0 .499.08.895.242 1.188.161.293.366.506.616.638.249.132.498.205.748.22.66.015 1.173-.176 1.54-.572.381-.396.645-.917.792-1.562.161-.66.242-1.35.242-2.068 0-.675-.081-1.313-.242-1.914-.162-.601-.418-1.085-.77-1.452-.352-.381-.814-.565-1.386-.55-.367.015-.704.11-1.012.286a2.225 2.225 0 0 0-.77.66V56.7Zm8.587 1.87c.411 0 .704-.08.88-.242.191-.161.308-.389.352-.682.044-.308.066-.653.066-1.034V47.57c0-.264.007-.565.022-.902.015-.352.037-.69.066-1.012-.235.015-.513.03-.836.044a8.37 8.37 0 0 0-.704.022V44.05c.689 0 1.261-.037 1.716-.11.469-.073.836-.161 1.1-.264.279-.103.469-.198.572-.286h1.188v13.068c0 .205-.007.499-.022.88-.015.367-.037.719-.066 1.056.249-.03.513-.044.792-.044.279-.015.491-.022.638-.022V60h-5.764v-1.43Zm12.42 1.782c-1.071 0-2.017-.235-2.838-.704a4.985 4.985 0 0 1-1.914-2.024c-.455-.88-.682-1.914-.682-3.102 0-1.027.227-1.987.682-2.882a5.54 5.54 0 0 1 1.914-2.156c.836-.557 1.804-.836 2.904-.836.616 0 1.217.088 1.804.264a3.991 3.991 0 0 1 1.584.858c.484.41.865.968 1.144 1.672.293.704.432 1.584.418 2.64l-7.216.132c0 .792.095 1.503.286 2.134.205.63.535 1.13.99 1.496.454.367 1.063.55 1.826.55.293 0 .623-.051.99-.154a4.353 4.353 0 0 0 1.144-.506c.396-.25.762-.58 1.1-.99l.99.924c-.528.748-1.093 1.32-1.694 1.716-.602.381-1.203.638-1.804.77a7.459 7.459 0 0 1-1.628.198Zm-2.068-7.678h4.048c-.015-.616-.103-1.1-.264-1.452-.147-.367-.352-.63-.616-.792a1.737 1.737 0 0 0-.924-.242c-.646 0-1.152.235-1.518.704-.367.455-.609 1.049-.726 1.782Zm17.815 7.392-2.662-7.634a30.404 30.404 0 0 0-.308-.858 6.16 6.16 0 0 1-.132-.484c-.03-.132-.066-.286-.11-.462l-.858.044V49h5.28v1.408c-.455.015-.719.19-.792.528-.074.337-.052.733.066 1.188l.748 2.684c.088.323.168.667.242 1.034.088.352.161.704.22 1.056.073-.308.146-.645.22-1.012.088-.367.212-.821.374-1.364L275.277 49h2.398l1.76 6.072c.088.308.176.645.264 1.012.102.352.19.675.264.968.058-.293.139-.616.242-.968.102-.352.198-.667.286-.946l.858-2.794c.117-.396.22-.719.308-.968.088-.264.198-.528.33-.792l-1.254.088V49h4.18v1.408c-.294 0-.55.095-.77.286-.22.19-.418.425-.594.704a4.878 4.878 0 0 0-.396.792c-.103.25-.176.447-.22.594l-2.508 7.282h-2.332l-1.518-4.686a15.231 15.231 0 0 0-.22-.704l-.286-.99a24.57 24.57 0 0 0-.264-1.012c-.074.41-.184.88-.33 1.408a76.49 76.49 0 0 1-.418 1.452c-.132.44-.228.74-.286.902l-1.21 3.63h-2.178Zm19.487.286c-1.071 0-2.017-.235-2.838-.704a4.999 4.999 0 0 1-1.914-2.024c-.455-.88-.682-1.914-.682-3.102 0-1.027.227-1.987.682-2.882a5.555 5.555 0 0 1 1.914-2.156c.836-.557 1.804-.836 2.904-.836.616 0 1.217.088 1.804.264a3.978 3.978 0 0 1 1.584.858c.484.41.865.968 1.144 1.672.293.704.433 1.584.418 2.64l-7.216.132c0 .792.095 1.503.286 2.134.205.63.535 1.13.99 1.496.455.367 1.063.55 1.826.55.293 0 .623-.051.99-.154a4.339 4.339 0 0 0 1.144-.506c.396-.25.763-.58 1.1-.99l.99.924c-.528.748-1.093 1.32-1.694 1.716-.601.381-1.203.638-1.804.77a7.452 7.452 0 0 1-1.628.198Zm-2.068-7.678h4.048c-.015-.616-.103-1.1-.264-1.452-.147-.367-.352-.63-.616-.792a1.737 1.737 0 0 0-.924-.242c-.645 0-1.151.235-1.518.704-.367.455-.609 1.049-.726 1.782Zm8.692 5.896c.41 0 .704-.08.88-.242.176-.161.286-.389.33-.682.058-.308.088-.653.088-1.034V52.96c0-.264.007-.565.022-.902.014-.352.036-.69.066-1.012-.235.015-.514.03-.836.044a8.37 8.37 0 0 0-.704.022V49.44c.674 0 1.246-.037 1.716-.11.469-.073.836-.161 1.1-.264.278-.103.469-.198.572-.286h1.188v7.678a26.309 26.309 0 0 1-.088 1.936c.234-.03.491-.044.77-.044.293-.015.513-.022.66-.022V60h-5.764v-1.43Zm2.75-11.528c-.499 0-.91-.176-1.232-.528a1.82 1.82 0 0 1-.484-1.276c0-.499.168-.924.506-1.276.337-.352.733-.528 1.188-.528.469 0 .858.176 1.166.528.322.352.484.777.484 1.276s-.147.924-.44 1.276c-.294.352-.69.528-1.188.528Zm9.177 18.92c-1.261 0-2.259-.14-2.992-.418-.733-.264-1.254-.616-1.562-1.056a2.411 2.411 0 0 1-.462-1.408c0-.308.066-.616.198-.924.132-.308.345-.609.638-.902.308-.279.726-.513 1.254-.704-.601-.161-1.027-.418-1.276-.77a2.124 2.124 0 0 1-.352-1.166c0-.381.154-.807.462-1.276.308-.484.865-.85 1.672-1.1a3.506 3.506 0 0 1-1.518-1.166c-.396-.528-.609-1.166-.638-1.914-.029-.88.191-1.657.66-2.332a4.777 4.777 0 0 1 1.848-1.606 5.296 5.296 0 0 1 2.398-.572c.381 0 .821.051 1.32.154.499.103.931.279 1.298.528.161-.455.367-.88.616-1.276.264-.41.579-.74.946-.99a2.058 2.058 0 0 1 1.232-.396c.499 0 .873.132 1.122.396.264.25.396.587.396 1.012 0 .176-.044.374-.132.594a1.105 1.105 0 0 1-.418.528c-.191.147-.462.22-.814.22-.22 0-.44-.08-.66-.242-.22-.176-.352-.381-.396-.616-.191.059-.381.25-.572.572-.191.323-.301.609-.33.858.425.367.748.792.968 1.276.22.484.33 1.005.33 1.562 0 .85-.242 1.606-.726 2.266a5.005 5.005 0 0 1-1.848 1.54 5.424 5.424 0 0 1-2.42.55c-.191 0-.403-.007-.638-.022a5.51 5.51 0 0 0-.682-.044c-.323 0-.594.059-.814.176-.22.117-.33.279-.33.484 0 .279.213.47.638.572.425.103 1.151.183 2.178.242 1.129.059 2.112.205 2.948.44.851.22 1.511.572 1.98 1.056.469.484.704 1.151.704 2.002 0 .63-.183 1.18-.55 1.65-.367.484-.858.887-1.474 1.21a7.25 7.25 0 0 1-2.002.748 9.398 9.398 0 0 1-2.2.264Zm.638-1.518c1.041 0 1.826-.19 2.354-.572.543-.381.814-.777.814-1.188a.98.98 0 0 0-.352-.77c-.235-.19-.587-.345-1.056-.462-.455-.117-1.041-.19-1.76-.22-.323-.03-.697-.051-1.122-.066a7.86 7.86 0 0 1-1.122-.11 1.73 1.73 0 0 0-.506.66 2.23 2.23 0 0 0-.198.77c-.029.587.22 1.056.748 1.408.543.367 1.276.55 2.2.55Zm-.308-8.734c.396 0 .726-.125.99-.374.279-.25.484-.565.616-.946.147-.381.22-.77.22-1.166 0-.513-.066-1.005-.198-1.474-.132-.484-.337-.873-.616-1.166-.264-.308-.609-.462-1.034-.462-.587 0-1.041.264-1.364.792-.323.528-.484 1.13-.484 1.804 0 .513.073 1.005.22 1.474.147.455.359.821.638 1.1.279.279.616.418 1.012.418Zm13.613 2.86c.411 0 .704-.08.88-.242.191-.161.308-.389.352-.682.059-.308.088-.653.088-1.034l-.022-3.124c0-.953-.146-1.657-.44-2.112-.278-.47-.726-.704-1.342-.704-.366 0-.733.08-1.1.242a3.664 3.664 0 0 0-.902.572v4.972c0 .205-.007.499-.022.88-.014.367-.036.719-.066 1.056.25-.03.514-.044.792-.044.279-.015.492-.022.638-.022V60h-5.764v-1.43c.411 0 .704-.08.88-.242.191-.161.308-.389.352-.682.044-.308.066-.653.066-1.034V47.57c0-.264.008-.565.022-.902.015-.352.037-.69.066-1.012-.234.015-.513.03-.836.044-.308 0-.542.007-.704.022V44.05c.69 0 1.262-.037 1.716-.11.47-.073.836-.161 1.1-.264.279-.103.47-.198.572-.286h1.188v6.49a4.92 4.92 0 0 1 1.012-.616c.382-.19.77-.337 1.166-.44a3.72 3.72 0 0 1 1.034-.176c1.35 0 2.303.389 2.86 1.166.558.763.844 1.995.858 3.696v2.948c0 .205-.007.499-.022.88-.014.367-.036.719-.066 1.056a6.25 6.25 0 0 1 .77-.044c.279-.015.499-.022.66-.022V60h-5.786v-1.43Zm11.335 1.782c-.44 0-.865-.051-1.276-.154a2.835 2.835 0 0 1-1.1-.572c-.322-.293-.579-.719-.77-1.276-.19-.557-.286-1.298-.286-2.222l.044-5.302h-1.496V49c.455-.015.895-.169 1.32-.462a3.826 3.826 0 0 0 1.078-1.144c.308-.47.514-.96.616-1.474h1.628l-.022 3.08h2.794v1.694l-2.794.066-.022 5.412c0 .337.03.675.088 1.012.074.323.206.594.396.814.191.205.47.308.836.308.206 0 .484-.073.836-.22.367-.147.756-.513 1.166-1.1l1.056.99c-.396.587-.806 1.041-1.232 1.364a4.858 4.858 0 0 1-1.232.704 3.97 3.97 0 0 1-1.012.264 7.24 7.24 0 0 1-.616.044Zm6.558 0c-.469 0-.858-.169-1.166-.506a1.784 1.784 0 0 1-.44-1.21c0-.47.162-.873.484-1.21.323-.337.697-.506 1.122-.506.455 0 .829.169 1.122.506.308.337.462.74.462 1.21s-.146.873-.44 1.21c-.278.337-.66.506-1.144.506Zm0-8.866c-.469 0-.858-.169-1.166-.506a1.784 1.784 0 0 1-.44-1.21c0-.47.162-.873.484-1.21.323-.337.697-.506 1.122-.506.455 0 .829.169 1.122.506.308.337.462.74.462 1.21s-.146.873-.44 1.21c-.278.337-.66.506-1.144.506ZM189.071 175.488V180h-1.864v-4.512l-4.208-7.008h1.64c.165 0 .296.04.392.12.096.08.176.181.24.304l2.36 4.128c.107.208.203.405.288.592.091.187.171.371.24.552.059-.187.131-.371.216-.552.085-.187.181-.384.288-.592l2.344-4.128a.9.9 0 0 1 .232-.288.564.564 0 0 1 .392-.136h1.648l-4.208 7.008Zm6.958-3.776c.603 0 1.147.099 1.632.296.491.197.907.477 1.248.84.347.363.613.803.8 1.32.187.517.28 1.099.28 1.744s-.093 1.227-.28 1.744c-.187.517-.453.96-.8 1.328a3.447 3.447 0 0 1-1.248.84 4.302 4.302 0 0 1-1.632.296 4.39 4.39 0 0 1-1.648-.296 3.552 3.552 0 0 1-1.248-.84 3.783 3.783 0 0 1-.8-1.328c-.187-.517-.28-1.099-.28-1.744s.093-1.227.28-1.744c.187-.517.453-.957.8-1.32a3.552 3.552 0 0 1 1.248-.84 4.39 4.39 0 0 1 1.648-.296Zm0 7.064c.736 0 1.283-.245 1.64-.736.363-.496.544-1.203.544-2.12s-.181-1.624-.544-2.12c-.357-.501-.904-.752-1.64-.752-.747 0-1.301.251-1.664.752-.363.496-.544 1.203-.544 2.12s.181 1.624.544 2.12c.363.491.917.736 1.664.736Zm12.493-6.936V180h-1.04c-.23 0-.376-.109-.44-.328l-.128-.76a4.787 4.787 0 0 1-.544.496 3.212 3.212 0 0 1-2.064.72c-.448 0-.843-.075-1.184-.224a2.373 2.373 0 0 1-.864-.632 2.743 2.743 0 0 1-.52-.976 4.286 4.286 0 0 1-.176-1.264v-5.192h1.72v5.192c0 .549.125.976.376 1.28.256.304.642.456 1.16.456.378 0 .73-.085 1.056-.256.33-.176.64-.416.928-.72v-5.952h1.72Zm3.713 1.512c.256-.517.565-.923.928-1.216.362-.299.797-.448 1.304-.448.176 0 .341.021.496.064.154.037.293.096.416.176l-.12 1.296c-.022.091-.056.155-.104.192a.29.29 0 0 1-.176.048c-.08 0-.195-.013-.344-.04a2.255 2.255 0 0 0-.472-.048c-.24 0-.454.035-.64.104a1.584 1.584 0 0 0-.496.304 2.095 2.095 0 0 0-.384.488 4.725 4.725 0 0 0-.312.656V180h-1.72v-8.16h1c.181 0 .306.035.376.104.069.064.117.179.144.344l.104 1.064Zm19.058-1.512-2.616 8.16h-1.368c-.16 0-.272-.104-.336-.312l-1.624-5.08a17.387 17.387 0 0 1-.12-.432 16.11 16.11 0 0 1-.088-.424c-.058.288-.13.576-.216.864l-1.648 5.072c-.058.208-.184.312-.376.312h-1.304l-2.616-8.16h1.36c.134 0 .243.035.328.104.091.064.15.141.176.232l1.36 4.752c.054.219.099.432.136.64.043.203.08.405.112.608a83.69 83.69 0 0 1 .352-1.248l1.528-4.776a.422.422 0 0 1 .16-.232.494.494 0 0 1 .304-.096h.752c.123 0 .227.032.312.096a.402.402 0 0 1 .168.232l1.488 4.776c.064.219.123.432.176.64.059.208.112.416.16.624a44.2 44.2 0 0 1 .12-.616c.043-.208.094-.424.152-.648l1.384-4.752a.49.49 0 0 1 .176-.24.508.508 0 0 1 .312-.096h1.296Zm6.482 3.16c0-.288-.043-.555-.128-.8-.08-.251-.2-.467-.36-.648a1.585 1.585 0 0 0-.6-.432 1.951 1.951 0 0 0-.816-.16c-.624 0-1.115.179-1.472.536-.357.357-.584.859-.68 1.504h4.056Zm-4.104 1.056c.021.464.093.867.216 1.208.123.336.285.616.488.84.208.224.453.392.736.504.288.107.608.16.96.16.336 0 .627-.037.872-.112a4.65 4.65 0 0 0 .64-.256c.181-.096.336-.181.464-.256a.676.676 0 0 1 .352-.12c.139 0 .245.053.32.16l.488.632c-.203.24-.432.443-.688.608a4.204 4.204 0 0 1-.816.408 4.64 4.64 0 0 1-.888.216 5.69 5.69 0 0 1-.888.072 4.346 4.346 0 0 1-1.576-.28 3.585 3.585 0 0 1-1.256-.84 3.943 3.943 0 0 1-.832-1.368c-.197-.544-.296-1.171-.296-1.88 0-.565.088-1.093.264-1.584.181-.491.437-.917.768-1.28a3.603 3.603 0 0 1 1.216-.856 3.962 3.962 0 0 1 1.624-.32c.501 0 .965.083 1.392.248.427.16.795.397 1.104.712.309.315.549.701.72 1.16.176.453.264.971.264 1.552 0 .267-.029.445-.088.536-.059.091-.165.136-.32.136h-5.24Zm9.044-4.216V180h-1.72v-8.16h1.72Zm.288-2.464c0 .155-.032.301-.096.44a1.149 1.149 0 0 1-.248.368 1.329 1.329 0 0 1-.376.248 1.133 1.133 0 0 1-.448.088c-.155 0-.301-.029-.44-.088a1.279 1.279 0 0 1-.352-.248 1.36 1.36 0 0 1-.248-.368 1.112 1.112 0 0 1-.088-.44c0-.16.029-.309.088-.448.064-.139.147-.259.248-.36.101-.107.219-.189.352-.248.139-.064.285-.096.44-.096.16 0 .309.032.448.096.144.059.269.141.376.248.107.101.189.221.248.36.064.139.096.288.096.448Zm4.785 6.472c.533 0 .933-.136 1.2-.408.267-.272.4-.627.4-1.064 0-.448-.133-.803-.4-1.064s-.667-.392-1.2-.392c-.528 0-.928.131-1.2.392-.267.261-.4.616-.4 1.064 0 .213.035.411.104.592.069.181.171.339.304.472.133.128.299.229.496.304.203.069.435.104.696.104Zm2.392 4.552a.583.583 0 0 0-.16-.432.955.955 0 0 0-.416-.256 2.715 2.715 0 0 0-.616-.136 8.03 8.03 0 0 0-.752-.064 37.703 37.703 0 0 0-.808-.04 9.39 9.39 0 0 1-.792-.08 2.157 2.157 0 0 0-.632.48.967.967 0 0 0-.24.648c0 .16.04.309.12.448.085.139.213.259.384.36.176.101.397.181.664.24.272.059.597.088.976.088.757 0 1.325-.117 1.704-.352s.568-.536.568-.904Zm1.728-8.264v.64c0 .213-.128.344-.384.392l-.816.136c.139.309.208.653.208 1.032 0 .4-.08.763-.24 1.088a2.417 2.417 0 0 1-.648.832 2.95 2.95 0 0 1-.992.528 4.07 4.07 0 0 1-1.248.184 5.22 5.22 0 0 1-.504-.024 6.542 6.542 0 0 1-.472-.08 1.138 1.138 0 0 0-.344.288.517.517 0 0 0-.112.312c0 .176.077.307.232.392.155.085.357.147.608.184.256.037.547.061.872.072.325.011.656.029.992.056.336.027.667.072.992.136.325.059.613.16.864.304.256.139.461.328.616.568.155.24.232.552.232.936a2.2 2.2 0 0 1-.264 1.032 2.756 2.756 0 0 1-.768.896 3.858 3.858 0 0 1-1.216.624c-.48.16-1.027.24-1.64.24-.608 0-1.139-.059-1.592-.176a3.708 3.708 0 0 1-1.128-.48 2.052 2.052 0 0 1-.672-.688 1.667 1.667 0 0 1-.216-.816c0-.384.12-.712.36-.984.245-.272.576-.485.992-.64a1.432 1.432 0 0 1-.544-.44c-.133-.187-.2-.432-.2-.736 0-.24.088-.491.264-.752.176-.261.44-.483.792-.664a2.619 2.619 0 0 1-.96-.888c-.235-.373-.352-.808-.352-1.304 0-.405.077-.771.232-1.096a2.45 2.45 0 0 1 .664-.832 3.05 3.05 0 0 1 1-.528 4.2 4.2 0 0 1 1.272-.184c.704 0 1.317.147 1.84.44h2.28Zm3.079.672a4.236 4.236 0 0 1 1.104-.792c.4-.203.866-.304 1.4-.304.448 0 .84.075 1.176.224.341.149.626.36.856.632.234.272.41.6.528.984.117.379.176.797.176 1.256V180h-1.712v-5.192c0-.549-.128-.976-.384-1.28-.251-.304-.635-.456-1.152-.456-.384 0-.742.088-1.072.264a3.682 3.682 0 0 0-.92.72V180h-1.72v-11.84h1.72v4.648Zm9.755 7.32c-.677 0-1.2-.189-1.568-.568-.363-.384-.544-.923-.544-1.616v-4.752h-.896a.37.37 0 0 1-.248-.088c-.069-.064-.104-.157-.104-.28v-.696l1.32-.192.376-2.36a.43.43 0 0 1 .136-.216.362.362 0 0 1 .256-.088h.88v2.68h2.264v1.24h-2.264v4.632c0 .293.072.517.216.672a.748.748 0 0 0 .576.232c.133 0 .248-.016.344-.048.096-.037.179-.075.248-.112.069-.043.128-.08.176-.112a.27.27 0 0 1 .152-.056c.096 0 .173.053.232.16l.512.84a2.839 2.839 0 0 1-.944.544 3.465 3.465 0 0 1-1.12.184Zm11.572-3.696c-.613.021-1.13.072-1.552.152-.421.075-.762.173-1.024.296-.261.117-.45.259-.568.424a.95.95 0 0 0-.168.544c0 .192.03.357.088.496.064.133.15.245.256.336.112.085.24.149.384.192.15.037.312.056.488.056.448 0 .832-.083 1.152-.248.326-.171.64-.416.944-.736v-1.512Zm-4.56-3.456c.923-.859 2.022-1.288 3.296-1.288.47 0 .886.077 1.248.232.368.149.675.363.92.64.251.277.44.608.568.992.134.379.2.8.2 1.264V180h-.768a.786.786 0 0 1-.376-.072c-.085-.053-.157-.157-.216-.312l-.168-.664a8.045 8.045 0 0 1-.616.504 3.908 3.908 0 0 1-.632.368 2.88 2.88 0 0 1-.696.224c-.245.053-.517.08-.816.08-.33 0-.64-.045-.928-.136a2.08 2.08 0 0 1-.736-.408 2.042 2.042 0 0 1-.496-.688 2.416 2.416 0 0 1-.176-.96c0-.315.083-.621.248-.92.171-.299.448-.565.832-.8.39-.24.899-.437 1.528-.592.635-.155 1.416-.243 2.344-.264v-.544c0-.587-.125-1.024-.376-1.312-.25-.288-.618-.432-1.104-.432-.33 0-.608.043-.832.128-.224.08-.418.168-.584.264a8.808 8.808 0 0 0-.44.272.757.757 0 0 1-.408.12.523.523 0 0 1-.304-.088.845.845 0 0 1-.2-.232l-.312-.56Zm15.627.216v4.632c0 .293.072.517.216.672a.748.748 0 0 0 .576.232c.133 0 .248-.016.344-.048.096-.037.178-.075.248-.112.069-.043.128-.08.176-.112a.27.27 0 0 1 .152-.056c.096 0 .173.053.232.16l.512.84a2.849 2.849 0 0 1-.944.544 3.465 3.465 0 0 1-1.12.184c-.678 0-1.2-.189-1.568-.568-.363-.384-.544-.923-.544-1.616v-4.752h-3.528V180h-1.72v-6.792l-.8-.112a.744.744 0 0 1-.328-.144c-.08-.069-.12-.168-.12-.296v-.704h1.248v-.688c0-.464.066-.88.2-1.248.138-.368.333-.68.584-.936.256-.256.565-.451.928-.584.362-.139.77-.208 1.224-.208a3.29 3.29 0 0 1 1.024.16l-.032.864c-.011.144-.083.229-.216.256-.128.027-.291.04-.488.04-.24 0-.456.029-.648.088a1.142 1.142 0 0 0-.496.28 1.328 1.328 0 0 0-.312.528c-.07.219-.104.491-.104.816v.632h3.648l.384-2.376a.424.424 0 0 1 .136-.216.362.362 0 0 1 .256-.088h.88v2.68h2.264v1.24h-2.264Zm8.91 1.808c0-.288-.043-.555-.128-.8-.08-.251-.2-.467-.36-.648a1.585 1.585 0 0 0-.6-.432 1.951 1.951 0 0 0-.816-.16c-.624 0-1.115.179-1.472.536-.358.357-.584.859-.68 1.504h4.056Zm-4.104 1.056c.021.464.093.867.216 1.208.122.336.285.616.488.84.208.224.453.392.736.504.288.107.608.16.96.16.336 0 .626-.037.872-.112.245-.08.458-.165.64-.256.181-.096.336-.181.464-.256a.676.676 0 0 1 .352-.12c.138 0 .245.053.32.16l.488.632c-.203.24-.432.443-.688.608a4.204 4.204 0 0 1-.816.408 4.64 4.64 0 0 1-.888.216 5.69 5.69 0 0 1-.888.072 4.342 4.342 0 0 1-1.576-.28 3.585 3.585 0 0 1-1.256-.84 3.928 3.928 0 0 1-.832-1.368c-.198-.544-.296-1.171-.296-1.88 0-.565.088-1.093.264-1.584.181-.491.437-.917.768-1.28a3.603 3.603 0 0 1 1.216-.856 3.962 3.962 0 0 1 1.624-.32c.501 0 .965.083 1.392.248.426.16.794.397 1.104.712.309.315.549.701.72 1.16.176.453.264.971.264 1.552 0 .267-.03.445-.088.536-.059.091-.166.136-.32.136h-5.24Zm8.876-2.704c.256-.517.565-.923.928-1.216.362-.299.797-.448 1.304-.448.176 0 .341.021.496.064.154.037.293.096.416.176l-.12 1.296c-.022.091-.056.155-.104.192a.29.29 0 0 1-.176.048c-.08 0-.195-.013-.344-.04a2.255 2.255 0 0 0-.472-.048c-.24 0-.454.035-.64.104a1.584 1.584 0 0 0-.496.304 2.095 2.095 0 0 0-.384.488 4.725 4.725 0 0 0-.312.656V180h-1.72v-8.16h1c.181 0 .306.035.376.104.069.064.117.179.144.344l.104 1.064Zm-82.925 29.344V204h-6.28v-1.304h2.4v-7.216c0-.256.008-.517.024-.784l-1.848 1.56a.648.648 0 0 1-.248.128.567.567 0 0 1-.232 0 .761.761 0 0 1-.192-.072.55.55 0 0 1-.128-.12l-.536-.752 3.472-2.984h1.4v10.24h2.168Zm8.937-.32c.187 0 .333.056.44.168.107.107.16.245.16.416V204h-7.792v-.584c0-.117.024-.24.072-.368a.985.985 0 0 1 .232-.352l3.584-3.592c.304-.304.573-.595.808-.872a5.85 5.85 0 0 0 .608-.832c.171-.277.299-.557.384-.84a2.98 2.98 0 0 0 .136-.904c0-.304-.048-.571-.144-.8a1.48 1.48 0 0 0-.384-.576 1.492 1.492 0 0 0-.584-.344 2.2 2.2 0 0 0-.744-.12 2.105 2.105 0 0 0-1.32.424 1.837 1.837 0 0 0-.432.48 2.048 2.048 0 0 0-.248.6c-.08.219-.184.365-.312.44-.123.075-.304.091-.544.048l-.904-.16c.08-.544.229-1.021.448-1.432.224-.411.504-.752.84-1.024.336-.277.72-.485 1.152-.624a4.499 4.499 0 0 1 1.416-.216c.512 0 .981.077 1.408.232.432.149.803.365 1.112.648.315.277.56.616.736 1.016.176.4.264.851.264 1.352 0 .427-.064.821-.192 1.184a4.707 4.707 0 0 1-.504 1.04 7.264 7.264 0 0 1-.752.968c-.283.309-.581.624-.896.944l-2.784 2.848c.229-.064.459-.115.688-.152a4.28 4.28 0 0 1 .664-.056h3.384Zm17.578-6.536-2.616 8.16h-1.368c-.16 0-.272-.104-.336-.312l-1.624-5.08a11.592 11.592 0 0 1-.12-.432 12.864 12.864 0 0 1-.088-.424c-.059.288-.131.576-.216.864l-1.648 5.072c-.059.208-.184.312-.376.312h-1.304l-2.616-8.16h1.36c.133 0 .242.035.328.104.09.064.149.141.176.232l1.36 4.752c.053.219.098.432.136.64.042.203.08.405.112.608a54.195 54.195 0 0 1 .352-1.248l1.528-4.776a.417.417 0 0 1 .16-.232.49.49 0 0 1 .304-.096h.752c.122 0 .226.032.312.096a.411.411 0 0 1 .168.232l1.488 4.776c.064.219.122.432.176.64.058.208.112.416.16.624.037-.203.077-.408.12-.616.042-.208.093-.424.152-.648l1.384-4.752a.484.484 0 0 1 .176-.24.504.504 0 0 1 .312-.096h1.296Zm6.481 3.16c0-.288-.042-.555-.128-.8-.08-.251-.2-.467-.36-.648a1.585 1.585 0 0 0-.6-.432 1.945 1.945 0 0 0-.816-.16c-.624 0-1.114.179-1.472.536-.357.357-.584.859-.68 1.504h4.056Zm-4.104 1.056c.022.464.094.867.216 1.208.123.336.286.616.488.84.208.224.454.392.736.504.288.107.608.16.96.16.336 0 .627-.037.872-.112a4.6 4.6 0 0 0 .64-.256c.182-.096.336-.181.464-.256a.679.679 0 0 1 .352-.12c.139 0 .246.053.32.16l.488.632c-.202.24-.432.443-.688.608a4.204 4.204 0 0 1-.816.408 4.64 4.64 0 0 1-.888.216 5.69 5.69 0 0 1-.888.072 4.35 4.35 0 0 1-1.576-.28 3.594 3.594 0 0 1-1.256-.84 3.943 3.943 0 0 1-.832-1.368c-.197-.544-.296-1.171-.296-1.88 0-.565.088-1.093.264-1.584.182-.491.438-.917.768-1.28a3.613 3.613 0 0 1 1.216-.856 3.966 3.966 0 0 1 1.624-.32c.502 0 .966.083 1.392.248.427.16.795.397 1.104.712.31.315.55.701.72 1.16.176.453.264.971.264 1.552 0 .267-.029.445-.088.536-.058.091-.165.136-.32.136h-5.24ZM259.634 199c0-.288-.042-.555-.128-.8-.08-.251-.2-.467-.36-.648a1.585 1.585 0 0 0-.6-.432 1.945 1.945 0 0 0-.816-.16c-.624 0-1.114.179-1.472.536-.357.357-.584.859-.68 1.504h4.056Zm-4.104 1.056c.022.464.094.867.216 1.208.123.336.286.616.488.84.208.224.454.392.736.504.288.107.608.16.96.16.336 0 .627-.037.872-.112a4.6 4.6 0 0 0 .64-.256c.182-.096.336-.181.464-.256a.679.679 0 0 1 .352-.12c.139 0 .246.053.32.16l.488.632c-.202.24-.432.443-.688.608a4.204 4.204 0 0 1-.816.408 4.64 4.64 0 0 1-.888.216 5.69 5.69 0 0 1-.888.072 4.35 4.35 0 0 1-1.576-.28 3.594 3.594 0 0 1-1.256-.84 3.943 3.943 0 0 1-.832-1.368c-.197-.544-.296-1.171-.296-1.88 0-.565.088-1.093.264-1.584.182-.491.438-.917.768-1.28a3.613 3.613 0 0 1 1.216-.856 3.966 3.966 0 0 1 1.624-.32c.502 0 .966.083 1.392.248.427.16.795.397 1.104.712.31.315.55.701.72 1.16.176.453.264.971.264 1.552 0 .267-.029.445-.088.536-.058.091-.165.136-.32.136h-5.24Zm8.972-7.896v6.864h.368a.733.733 0 0 0 .288-.048.639.639 0 0 0 .232-.2l2.288-2.616a.844.844 0 0 1 .264-.24.757.757 0 0 1 .368-.08h1.56l-2.752 3.104c-.16.208-.336.373-.528.496.107.075.2.16.28.256.08.091.158.195.232.312l2.936 3.992h-1.536a.922.922 0 0 1-.36-.064.652.652 0 0 1-.256-.256l-2.36-3.2c-.08-.123-.16-.2-.24-.232a.895.895 0 0 0-.36-.056h-.424V204h-1.72v-11.84h1.72Zm11.512 5.16a.43.43 0 0 1-.144.16.385.385 0 0 1-.2.048.669.669 0 0 1-.296-.08 7.47 7.47 0 0 0-.376-.192 2.987 2.987 0 0 0-.512-.184 2.329 2.329 0 0 0-.68-.088c-.214 0-.408.027-.584.08-.171.048-.318.12-.44.216a.94.94 0 0 0-.272.328.853.853 0 0 0-.096.4.68.68 0 0 0 .176.48c.117.128.272.24.464.336.192.091.41.173.656.248.245.075.496.155.752.24.256.085.506.184.752.296.245.112.464.251.656.416.192.16.346.357.464.592.117.229.176.509.176.84 0 .384-.07.739-.208 1.064a2.405 2.405 0 0 1-.608.848c-.267.24-.6.427-1 .56-.395.133-.848.2-1.36.2a4.21 4.21 0 0 1-.824-.08 4.881 4.881 0 0 1-.752-.2 4.473 4.473 0 0 1-.664-.32 3.59 3.59 0 0 1-.544-.4l.4-.656a.49.49 0 0 1 .448-.256c.112 0 .221.037.328.112.112.069.24.147.384.232.149.085.328.165.536.24.208.069.466.104.776.104.256 0 .477-.029.664-.088.186-.064.341-.149.464-.256a1.04 1.04 0 0 0 .272-.36 1.13 1.13 0 0 0 .088-.44.748.748 0 0 0-.176-.512 1.498 1.498 0 0 0-.472-.344 4.17 4.17 0 0 0-.664-.256 32.019 32.019 0 0 1-.752-.24 8.116 8.116 0 0 1-.76-.296 2.733 2.733 0 0 1-.664-.424 2.042 2.042 0 0 1-.464-.632c-.118-.251-.176-.555-.176-.912 0-.325.064-.635.192-.928.133-.293.325-.552.576-.776a2.8 2.8 0 0 1 .936-.528c.373-.133.802-.2 1.288-.2.549 0 1.048.088 1.496.264.448.176.824.416 1.128.72l-.384.624ZM67.858 382.794 62.86 395h-1.58l-1.582-9.146a16.248 16.248 0 0 1-.05-.306 25.49 25.49 0 0 1-.035-.366c-.085.25-.167.474-.246.672L55.533 395H53.97l-2.006-12.206h1.369c.153 0 .275.037.365.11.097.074.15.173.162.298l1.258 8.338.034.51c.017.176.03.363.042.561.063-.198.125-.388.187-.569.068-.181.133-.349.196-.502l3.502-8.338a.727.727 0 0 1 .238-.281.634.634 0 0 1 .39-.127h.4c.153 0 .272.04.357.119.09.074.153.17.187.289l1.445 8.338c.029.153.051.318.068.493.023.176.043.36.06.553.107-.38.215-.728.323-1.046l3.298-8.338a.531.531 0 0 1 .238-.281.709.709 0 0 1 .408-.127h1.368Zm7.319 10.982L75.024 395h-6.112l.153-1.224h2.372l.994-8.126.051-.374c.017-.125.04-.252.068-.383l-2.074 1.777a.66.66 0 0 1-.246.119.575.575 0 0 1-.221.008.442.442 0 0 1-.17-.068.337.337 0 0 1-.11-.11l-.417-.697 3.765-3.154h1.31l-1.344 11.008h2.134ZM242.928 382.794 237.93 395h-1.581l-1.581-9.146a16.248 16.248 0 0 1-.051-.306 16.905 16.905 0 0 1-.034-.366c-.085.25-.168.474-.247.672L230.603 395h-1.564l-2.006-12.206h1.368c.153 0 .275.037.366.11.096.074.15.173.161.298l1.258 8.338c.011.159.023.329.034.51.017.176.031.363.043.561.062-.198.124-.388.187-.569.068-.181.133-.349.195-.502l3.502-8.338a.728.728 0 0 1 .238-.281.634.634 0 0 1 .391-.127h.4c.153 0 .272.04.357.119.09.074.153.17.187.289l1.445 8.338c.028.153.051.318.068.493.022.176.042.36.059.553.108-.38.215-.728.323-1.046l3.298-8.338a.53.53 0 0 1 .238-.281.71.71 0 0 1 .408-.127h1.369Zm7.318 10.982-.153 1.224h-6.111l.153-1.224h2.371l.995-8.126.051-.374c.017-.125.039-.252.068-.383l-2.074 1.777a.657.657 0 0 1-.247.119.575.575 0 0 1-.221.008.444.444 0 0 1-.17-.068.329.329 0 0 1-.11-.11l-.417-.697 3.766-3.154h1.309l-1.343 11.008h2.133Zm9.564-.289c.17 0 .3.051.391.153.091.096.125.227.102.391l-.119.969h-7.582l.068-.544c.011-.113.048-.232.111-.357.062-.125.15-.235.263-.332l4.004-3.884a24.08 24.08 0 0 0 1.011-1.054c.3-.329.553-.655.757-.978.209-.328.368-.66.476-.994.107-.34.161-.706.161-1.097 0-.283-.042-.532-.127-.748a1.416 1.416 0 0 0-.34-.535 1.35 1.35 0 0 0-.519-.332 1.878 1.878 0 0 0-.654-.11c-.267 0-.516.045-.748.136a2.18 2.18 0 0 0-.638.365 2.617 2.617 0 0 0-.501.553c-.142.21-.255.442-.34.697-.097.21-.21.351-.34.425-.125.068-.295.085-.51.051l-.825-.145a5.276 5.276 0 0 1 .612-1.487c.272-.431.587-.791.944-1.08a3.828 3.828 0 0 1 1.207-.663 4.228 4.228 0 0 1 1.394-.229c.447 0 .858.068 1.232.204.374.136.694.331.961.586.272.255.481.567.629.935.147.363.221.774.221 1.233 0 .521-.077.997-.23 1.428-.153.425-.363.83-.629 1.215-.261.38-.567.751-.918 1.114-.346.357-.714.725-1.105 1.105l-3.298 3.238c.249-.068.499-.121.748-.161.255-.045.49-.068.706-.068h3.425ZM326.468 338.04h-3.592V348h-1.864v-9.96h-3.6v-1.56h9.056v1.56Zm2.863 2.768a4.236 4.236 0 0 1 1.104-.792c.4-.203.866-.304 1.4-.304.448 0 .84.075 1.176.224.341.149.626.36.856.632.234.272.41.6.528.984.117.379.176.797.176 1.256V348h-1.712v-5.192c0-.549-.128-.976-.384-1.28-.251-.304-.635-.456-1.152-.456-.384 0-.742.088-1.072.264a3.682 3.682 0 0 0-.92.72V348h-1.72v-11.84h1.72v4.648Zm12.6 2.192c0-.288-.042-.555-.128-.8-.08-.251-.2-.467-.36-.648a1.585 1.585 0 0 0-.6-.432 1.945 1.945 0 0 0-.816-.16c-.624 0-1.114.179-1.472.536-.357.357-.584.859-.68 1.504h4.056Zm-4.104 1.056c.022.464.094.867.216 1.208.123.336.286.616.488.84.208.224.454.392.736.504.288.107.608.16.96.16.336 0 .627-.037.872-.112a4.6 4.6 0 0 0 .64-.256c.182-.096.336-.181.464-.256a.679.679 0 0 1 .352-.12c.139 0 .246.053.32.16l.488.632c-.202.24-.432.443-.688.608a4.204 4.204 0 0 1-.816.408 4.64 4.64 0 0 1-.888.216 5.69 5.69 0 0 1-.888.072 4.35 4.35 0 0 1-1.576-.28 3.594 3.594 0 0 1-1.256-.84 3.943 3.943 0 0 1-.832-1.368c-.197-.544-.296-1.171-.296-1.88 0-.565.088-1.093.264-1.584.182-.491.438-.917.768-1.28a3.613 3.613 0 0 1 1.216-.856 3.966 3.966 0 0 1 1.624-.32c.502 0 .966.083 1.392.248.427.16.795.397 1.104.712.31.315.55.701.72 1.16.176.453.264.971.264 1.552 0 .267-.029.445-.088.536-.058.091-.165.136-.32.136h-5.24Zm22.373-4.216-2.616 8.16h-1.368c-.16 0-.272-.104-.336-.312l-1.624-5.08a11.592 11.592 0 0 1-.12-.432 12.864 12.864 0 0 1-.088-.424c-.059.288-.131.576-.216.864l-1.648 5.072c-.059.208-.184.312-.376.312h-1.304l-2.616-8.16h1.36c.133 0 .242.035.328.104.09.064.149.141.176.232l1.36 4.752c.053.219.098.432.136.64.042.203.08.405.112.608a54.195 54.195 0 0 1 .352-1.248l1.528-4.776a.417.417 0 0 1 .16-.232.49.49 0 0 1 .304-.096h.752c.122 0 .226.032.312.096a.411.411 0 0 1 .168.232l1.488 4.776c.064.219.122.432.176.64.058.208.112.416.16.624.037-.203.077-.408.12-.616.042-.208.093-.424.152-.648l1.384-4.752a.484.484 0 0 1 .176-.24.504.504 0 0 1 .312-.096h1.296Zm6.481 3.16c0-.288-.042-.555-.128-.8-.08-.251-.2-.467-.36-.648a1.585 1.585 0 0 0-.6-.432 1.945 1.945 0 0 0-.816-.16c-.624 0-1.114.179-1.472.536-.357.357-.584.859-.68 1.504h4.056Zm-4.104 1.056c.022.464.094.867.216 1.208.123.336.286.616.488.84.208.224.454.392.736.504.288.107.608.16.96.16.336 0 .627-.037.872-.112a4.6 4.6 0 0 0 .64-.256c.182-.096.336-.181.464-.256a.679.679 0 0 1 .352-.12c.139 0 .246.053.32.16l.488.632c-.202.24-.432.443-.688.608a4.204 4.204 0 0 1-.816.408 4.64 4.64 0 0 1-.888.216 5.69 5.69 0 0 1-.888.072 4.35 4.35 0 0 1-1.576-.28 3.594 3.594 0 0 1-1.256-.84 3.943 3.943 0 0 1-.832-1.368c-.197-.544-.296-1.171-.296-1.88 0-.565.088-1.093.264-1.584.182-.491.438-.917.768-1.28a3.613 3.613 0 0 1 1.216-.856 3.966 3.966 0 0 1 1.624-.32c.502 0 .966.083 1.392.248.427.16.795.397 1.104.712.31.315.55.701.72 1.16.176.453.264.971.264 1.552 0 .267-.029.445-.088.536-.058.091-.165.136-.32.136h-5.24Zm9.044-4.216V348h-1.72v-8.16h1.72Zm.288-2.464c0 .155-.032.301-.096.44a1.133 1.133 0 0 1-.248.368 1.315 1.315 0 0 1-.376.248 1.13 1.13 0 0 1-.448.088c-.154 0-.301-.029-.44-.088a1.294 1.294 0 0 1-.352-.248 1.36 1.36 0 0 1-.248-.368 1.151 1.151 0 0 1 0-.888 1.234 1.234 0 0 1 .6-.608 1.04 1.04 0 0 1 .44-.096c.16 0 .31.032.448.096.144.059.27.141.376.248.107.101.19.221.248.36.064.139.096.288.096.448Zm4.785 6.472c.534 0 .934-.136 1.2-.408.267-.272.4-.627.4-1.064 0-.448-.133-.803-.4-1.064-.266-.261-.666-.392-1.2-.392-.528 0-.928.131-1.2.392-.266.261-.4.616-.4 1.064 0 .213.035.411.104.592.07.181.171.339.304.472.134.128.299.229.496.304.203.069.435.104.696.104Zm2.392 4.552a.583.583 0 0 0-.16-.432.955.955 0 0 0-.416-.256 2.715 2.715 0 0 0-.616-.136 8 8 0 0 0-.752-.064c-.261-.016-.53-.029-.808-.04a9.39 9.39 0 0 1-.792-.08 2.17 2.17 0 0 0-.632.48.967.967 0 0 0-.24.648c0 .16.04.309.12.448.086.139.214.259.384.36.176.101.398.181.664.24.272.059.598.088.976.088.758 0 1.326-.117 1.704-.352.379-.235.568-.536.568-.904Zm1.728-8.264v.64c0 .213-.128.344-.384.392l-.816.136c.139.309.208.653.208 1.032 0 .4-.08.763-.24 1.088-.154.325-.37.603-.648.832a2.95 2.95 0 0 1-.992.528 4.07 4.07 0 0 1-1.248.184 5.25 5.25 0 0 1-.504-.024 6.542 6.542 0 0 1-.472-.08 1.15 1.15 0 0 0-.344.288.524.524 0 0 0-.112.312.42.42 0 0 0 .232.392c.155.085.358.147.608.184.256.037.547.061.872.072.326.011.656.029.992.056.336.027.667.072.992.136.326.059.614.16.864.304.256.139.462.328.616.568.155.24.232.552.232.936a2.2 2.2 0 0 1-.264 1.032 2.756 2.756 0 0 1-.768.896c-.33.261-.736.469-1.216.624-.48.16-1.026.24-1.64.24a6.417 6.417 0 0 1-1.592-.176 3.708 3.708 0 0 1-1.128-.48 2.071 2.071 0 0 1-.672-.688 1.667 1.667 0 0 1-.216-.816c0-.384.12-.712.36-.984.246-.272.576-.485.992-.64a1.432 1.432 0 0 1-.544-.44c-.133-.187-.2-.432-.2-.736 0-.24.088-.491.264-.752.176-.261.44-.483.792-.664a2.619 2.619 0 0 1-.96-.888c-.234-.373-.352-.808-.352-1.304 0-.405.078-.771.232-1.096.16-.325.382-.603.664-.832a3.05 3.05 0 0 1 1-.528 4.21 4.21 0 0 1 1.272-.184c.704 0 1.318.147 1.84.44h2.28Zm3.079.672a4.236 4.236 0 0 1 1.104-.792c.4-.203.867-.304 1.4-.304.448 0 .84.075 1.176.224.341.149.627.36.856.632.235.272.411.6.528.984.117.379.176.797.176 1.256V348h-1.712v-5.192c0-.549-.128-.976-.384-1.28-.251-.304-.635-.456-1.152-.456-.384 0-.741.088-1.072.264a3.7 3.7 0 0 0-.92.72V348h-1.72v-11.84h1.72v4.648Zm9.755 7.32c-.677 0-1.2-.189-1.568-.568-.362-.384-.544-.923-.544-1.616v-4.752h-.896a.371.371 0 0 1-.248-.088c-.069-.064-.104-.157-.104-.28v-.696l1.32-.192.376-2.36a.43.43 0 0 1 .136-.216.364.364 0 0 1 .256-.088h.88v2.68h2.264v1.24h-2.264v4.632c0 .293.072.517.216.672a.748.748 0 0 0 .576.232c.134 0 .248-.016.344-.048.096-.037.179-.075.248-.112.07-.043.128-.08.176-.112a.272.272 0 0 1 .152-.056c.096 0 .174.053.232.16l.512.84a2.829 2.829 0 0 1-.944.544 3.46 3.46 0 0 1-1.12.184Zm-63.22 17.192a.43.43 0 0 1-.144.16.385.385 0 0 1-.2.048.669.669 0 0 1-.296-.08 7.47 7.47 0 0 0-.376-.192 2.987 2.987 0 0 0-.512-.184 2.329 2.329 0 0 0-.68-.088c-.214 0-.408.027-.584.08-.171.048-.318.12-.44.216a.94.94 0 0 0-.272.328.853.853 0 0 0-.096.4.68.68 0 0 0 .176.48c.117.128.272.24.464.336.192.091.41.173.656.248.245.075.496.155.752.24.256.085.506.184.752.296.245.112.464.251.656.416.192.16.346.357.464.592.117.229.176.509.176.84 0 .384-.07.739-.208 1.064a2.405 2.405 0 0 1-.608.848c-.267.24-.6.427-1 .56-.395.133-.848.2-1.36.2a4.21 4.21 0 0 1-.824-.08 4.881 4.881 0 0 1-.752-.2 4.473 4.473 0 0 1-.664-.32 3.59 3.59 0 0 1-.544-.4l.4-.656a.49.49 0 0 1 .448-.256c.112 0 .221.037.328.112.112.069.24.147.384.232.149.085.328.165.536.24.208.069.466.104.776.104.256 0 .477-.029.664-.088.186-.064.341-.149.464-.256a1.04 1.04 0 0 0 .272-.36 1.13 1.13 0 0 0 .088-.44.748.748 0 0 0-.176-.512 1.498 1.498 0 0 0-.472-.344 4.17 4.17 0 0 0-.664-.256 32.019 32.019 0 0 1-.752-.24 8.116 8.116 0 0 1-.76-.296 2.733 2.733 0 0 1-.664-.424 2.042 2.042 0 0 1-.464-.632c-.118-.251-.176-.555-.176-.912 0-.325.064-.635.192-.928.133-.293.325-.552.576-.776a2.8 2.8 0 0 1 .936-.528c.373-.133.802-.2 1.288-.2.549 0 1.048.088 1.496.264.448.176.824.416 1.128.72l-.384.624Zm4.728 6.808c-.677 0-1.2-.189-1.568-.568-.362-.384-.544-.923-.544-1.616v-4.752h-.896a.371.371 0 0 1-.248-.088c-.069-.064-.104-.157-.104-.28v-.696l1.32-.192.376-2.36a.43.43 0 0 1 .136-.216.364.364 0 0 1 .256-.088h.88v2.68h2.264v1.24h-2.264v4.632c0 .293.072.517.216.672a.748.748 0 0 0 .576.232c.134 0 .248-.016.344-.048.096-.037.179-.075.248-.112.07-.043.128-.08.176-.112a.272.272 0 0 1 .152-.056c.096 0 .174.053.232.16l.512.84a2.829 2.829 0 0 1-.944.544 3.46 3.46 0 0 1-1.12.184Zm7.588-3.696a10.4 10.4 0 0 0-1.552.152c-.421.075-.763.173-1.024.296-.261.117-.451.259-.568.424a.95.95 0 0 0-.168.544c0 .192.029.357.088.496.064.133.149.245.256.336.112.085.24.149.384.192.149.037.312.056.488.056.448 0 .832-.083 1.152-.248.325-.171.64-.416.944-.736v-1.512Zm-4.56-3.456c.923-.859 2.021-1.288 3.296-1.288.469 0 .885.077 1.248.232.368.149.675.363.92.64.251.277.44.608.568.992.133.379.2.8.2 1.264V372h-.768c-.165 0-.291-.024-.376-.072-.085-.053-.157-.157-.216-.312l-.168-.664a8.045 8.045 0 0 1-.616.504 3.952 3.952 0 0 1-.632.368 2.88 2.88 0 0 1-.696.224c-.245.053-.517.08-.816.08-.331 0-.64-.045-.928-.136a2.072 2.072 0 0 1-.736-.408 2.042 2.042 0 0 1-.496-.688 2.416 2.416 0 0 1-.176-.96c0-.315.083-.621.248-.92.171-.299.448-.565.832-.8.389-.24.899-.437 1.528-.592.635-.155 1.416-.243 2.344-.264v-.544c0-.587-.125-1.024-.376-1.312-.251-.288-.619-.432-1.104-.432-.331 0-.608.043-.832.128-.224.08-.419.168-.584.264a8.808 8.808 0 0 0-.44.272.757.757 0 0 1-.408.12.52.52 0 0 1-.304-.088.828.828 0 0 1-.2-.232l-.312-.56Zm15.268-1.136-4.496 10.48a.82.82 0 0 1-.216.288c-.08.069-.205.104-.376.104h-1.272l1.504-3.264-3.328-7.608h1.496c.144 0 .253.035.328.104.08.064.139.141.176.232l1.944 4.632c.048.133.091.267.128.4.043.128.083.261.12.4.043-.139.085-.275.128-.408.043-.133.091-.267.144-.4l1.864-4.624a.54.54 0 0 1 .184-.24.503.503 0 0 1 .296-.096h1.376Zm5.835 1.48a.414.414 0 0 1-.144.16.382.382 0 0 1-.2.048.676.676 0 0 1-.296-.08 7.062 7.062 0 0 0-.376-.192 2.956 2.956 0 0 0-.512-.184 2.324 2.324 0 0 0-.68-.088c-.213 0-.408.027-.584.08-.17.048-.317.12-.44.216a.952.952 0 0 0-.272.328.853.853 0 0 0-.096.4c0 .192.059.352.176.48.118.128.272.24.464.336.192.091.411.173.656.248.246.075.496.155.752.24.256.085.507.184.752.296.246.112.464.251.656.416.192.16.347.357.464.592.118.229.176.509.176.84 0 .384-.069.739-.208 1.064a2.38 2.38 0 0 1-.608.848c-.266.24-.6.427-1 .56a4.25 4.25 0 0 1-1.36.2c-.282 0-.557-.027-.824-.08a4.912 4.912 0 0 1-.752-.2 4.522 4.522 0 0 1-.664-.32 3.642 3.642 0 0 1-.544-.4l.4-.656a.495.495 0 0 1 .448-.256c.112 0 .222.037.328.112.112.069.24.147.384.232.15.085.328.165.536.24.208.069.467.104.776.104.256 0 .478-.029.664-.088.187-.064.342-.149.464-.256.123-.107.214-.227.272-.36.059-.139.088-.285.088-.44a.743.743 0 0 0-.176-.512 1.475 1.475 0 0 0-.472-.344 4.133 4.133 0 0 0-.664-.256 33.593 33.593 0 0 1-.752-.24 8.225 8.225 0 0 1-.76-.296 2.772 2.772 0 0 1-.664-.424 2.058 2.058 0 0 1-.464-.632c-.117-.251-.176-.555-.176-.912 0-.325.064-.635.192-.928.134-.293.326-.552.576-.776a2.8 2.8 0 0 1 .936-.528c.374-.133.803-.2 1.288-.2.55 0 1.048.088 1.496.264.448.176.824.416 1.128.72l-.384.624Zm9.625-1.608c.603 0 1.147.099 1.632.296.491.197.907.477 1.248.84.347.363.613.803.8 1.32.187.517.28 1.099.28 1.744s-.093 1.227-.28 1.744c-.187.517-.453.96-.8 1.328a3.447 3.447 0 0 1-1.248.84 4.302 4.302 0 0 1-1.632.296 4.39 4.39 0 0 1-1.648-.296 3.552 3.552 0 0 1-1.248-.84 3.783 3.783 0 0 1-.8-1.328c-.187-.517-.28-1.099-.28-1.744s.093-1.227.28-1.744c.187-.517.453-.957.8-1.32a3.552 3.552 0 0 1 1.248-.84 4.39 4.39 0 0 1 1.648-.296Zm0 7.064c.736 0 1.283-.245 1.64-.736.363-.496.544-1.203.544-2.12s-.181-1.624-.544-2.12c-.357-.501-.904-.752-1.64-.752-.747 0-1.301.251-1.664.752-.363.496-.544 1.203-.544 2.12s.181 1.624.544 2.12c.363.491.917.736 1.664.736Zm5.977 1.224v-6.792l-.8-.112a.75.75 0 0 1-.328-.144c-.08-.069-.12-.168-.12-.296v-.704h1.248v-.552c0-.469.067-.888.2-1.256.139-.368.333-.68.584-.936.256-.256.565-.451.928-.584.363-.133.771-.2 1.224-.2.187 0 .363.013.528.04.171.027.336.064.496.112l-.032.872c-.011.139-.083.224-.216.256-.128.027-.291.04-.488.04-.24 0-.456.029-.648.088a1.148 1.148 0 0 0-.496.28 1.352 1.352 0 0 0-.312.528 2.716 2.716 0 0 0-.104.808v.504h3.456v-.792c0-.469.067-.888.2-1.256.139-.368.333-.68.584-.936.256-.256.565-.451.928-.584.363-.133.768-.2 1.216-.2.187 0 .365.013.536.04.171.027.336.064.496.112l-.04.872c-.011.139-.083.224-.216.256-.128.027-.291.04-.488.04-.24 0-.456.029-.648.088a1.148 1.148 0 0 0-.496.28 1.352 1.352 0 0 0-.312.528 2.716 2.716 0 0 0-.104.808v.744h2.232v1.24h-2.176V372h-1.712v-6.808h-3.4V372h-1.72Zm12.221-11.52v4.576c0 .48-.021.952-.064 1.416a42.57 42.57 0 0 1-.168 1.488h-1.16a32.372 32.372 0 0 1-.176-1.488 17.808 17.808 0 0 1-.056-1.416v-4.576h1.624Zm-1.952 10.528c0-.155.027-.299.08-.432a1.124 1.124 0 0 1 .592-.6c.133-.059.28-.088.44-.088.155 0 .299.029.432.088a1.124 1.124 0 0 1 .68 1.032c0 .16-.029.307-.088.44a1.157 1.157 0 0 1-.24.352.941.941 0 0 1-.352.232 1.053 1.053 0 0 1-.432.088c-.16 0-.307-.029-.44-.088a1.038 1.038 0 0 1-.352-.232 1.157 1.157 0 0 1-.24-.352 1.18 1.18 0 0 1-.08-.44Z" fill="#263853"/>
    <path d="M64 85v279M244 285v79" stroke="#C6CDE4" stroke-dasharray="9 9" stroke-width="2"/>
    <path d="M1 98s55.356 8.791 89.615 25.482C168.22 161.293 130 247.937 238.784 283.212 293.825 301.06 444 297.759 444 297.759" stroke="url(#b)" stroke-linecap="round" stroke-width="4"/>
    <circle cx="244" cy="284" fill="#299DE0" fill-opacity=".2" r="17"/>
    <circle cx="244" cy="284" fill="#299DE0" r="8.167"/>
    <path d="m244 255 5.774-10h-11.548L244 255Zm-1-37v28h2v-28h-2ZM376 319l-10-5.774v11.548L376 319Zm-37 1h28v-2h-28v2Z" fill="#C6CDE4"/>
    <rect fill="#E8F5FF" height="52.5" rx="26.25" stroke="#299DE0" stroke-width="1.5" width="104.5" x="122.25" y="293.25"/>
    <rect fill="#E8F5FF" height="52.5" rx="26.25" stroke="#299DE0" stroke-width="1.5" width="104.5" x="11.25" y="84.25"/>
  </g>
  <defs>
    <linearGradient gradientUnits="userSpaceOnUse" id="b" x1="1" x2="452.147" y1="96.996" y2="291.125">
      <stop stop-color="#D92424"/>
      <stop offset=".501" stop-color="#F7CF00"/>
      <stop offset=".703" stop-color="#229B77"/>
    </linearGradient>
    <clipPath id="a">
      <rect fill="#fff" height="440" rx="20" width="440"/>
    </clipPath>
  </defs>
</svg>