<svg xmlns="http://www.w3.org/2000/svg" viewBox="0 0 120 200" fill="none">
  <ellipse cx="60" cy="30" rx="20" ry="25" fill="#F5D0C5"/>
  <path d="M33 55 Q25 90 30 130 Q34 160 40 190 L52 190 Q46 160 42 130 Q38 100 42 75 Z" fill="#F5D0C5"/>
  <path d="M87 55 Q95 90 90 130 Q86 160 80 190 L68 190 Q74 160 78 130 Q82 100 78 75 Z" fill="#F5D0C5"/>
  <path d="M33 55 Q42 60 60 62 Q78 60 87 55 L87 78 Q78 98 60 100 Q42 98 33 78 Z" fill="#2D2D2D"/>
  <path d="M35 78 Q38 108 60 115 Q82 108 85 78 Q85 140 60 148 Q35 140 35 78 Z" fill="#F5D0C5"/>
  <ellipse cx="60" cy="105" rx="30" ry="18" fill="#F5D0C5" opacity="0.8"/>
</svg>
