<svg xmlns="http://www.w3.org/2000/svg" viewBox="0 0 120 200">
  <!-- Base body -->
  <ellipse cx="60" cy="30" rx="20" ry="25" fill="#F5D0C5"/>
  <path d="M40 55 Q35 90 38 130 Q40 160 45 190 L55 190 Q52 160 50 130 Q48 100 50 75 Z" fill="#F5D0C5"/>
  <path d="M80 55 Q85 90 82 130 Q80 160 75 190 L65 190 Q68 160 70 130 Q72 100 70 75 Z" fill="#F5D0C5"/>
  <path d="M40 55 Q45 60 60 62 Q75 60 80 55 L80 75 Q75 95 60 97 Q45 95 40 75 Z" fill="#2D2D2D"/>
  <path d="M42 75 Q50 100 60 102 Q70 100 78 75 Q75 130 60 135 Q45 130 42 75 Z" fill="#F5D0C5"/>
  <!-- Hips highlighted -->
  <path d="M44 120 Q41 140 43 165 L52 165 Q50 142 52 130 Q58 122 60 122 Q62 122 68 130 Q70 142 68 165 L77 165 Q79 140 76 120 Q68 112 60 112 Q52 112 44 120 Z" fill="#E85D75"/>
</svg>
